<?xml version="1.0" standalone="no"?>
<!DOCTYPE svg PUBLIC "-//W3C//DTD SVG 20010904//EN"
 "http://www.w3.org/TR/2001/REC-SVG-20010904/DTD/svg10.dtd">
<svg version="1.0" xmlns="http://www.w3.org/2000/svg"
 width="700.000000pt" height="700.000000pt" viewBox="0 0 700.000000 700.000000"
 preserveAspectRatio="xMidYMid meet">
<metadata>
Created by potrace 1.11, written by Peter Selinger 2001-2013
</metadata>
<g transform="translate(0.000000,700.000000) scale(0.100000,-0.100000)"
fill="#000000" stroke="none">
<path d="M3437 6564 c-1 -1 -132 -5 -292 -9 -159 -3 -321 -8 -360 -10 -136 -6
-320 -16 -355 -20 -19 -2 -87 -6 -150 -9 -63 -4 -131 -8 -150 -11 -19 -2 -66
-7 -105 -10 -38 -3 -81 -8 -95 -10 -14 -2 -61 -7 -105 -10 -44 -4 -91 -9 -105
-10 -14 -2 -35 -3 -48 -4 -20 -1 -23 -5 -18 -28 5 -29 13 -97 31 -281 l7 -73
-28 6 c-111 21 -313 27 -401 13 -281 -47 -475 -213 -538 -463 -19 -73 -26
-248 -13 -340 37 -280 200 -618 444 -925 85 -107 312 -334 424 -427 147 -120
298 -223 453 -307 67 -37 95 -58 115 -90 88 -135 221 -277 363 -386 65 -50
251 -170 264 -170 2 0 37 -15 77 -34 89 -42 226 -88 330 -110 87 -19 99 -30
143 -129 40 -91 57 -197 56 -352 0 -77 -2 -158 -5 -180 -3 -22 -7 -74 -11
-115 -3 -41 -8 -86 -10 -100 -3 -14 -7 -43 -10 -65 -5 -46 -10 -80 -26 -190
-7 -44 -13 -87 -14 -95 -5 -39 -18 -127 -21 -145 -3 -11 -7 -38 -10 -60 -5
-43 -12 -85 -19 -125 -2 -14 -7 -45 -10 -70 -3 -25 -10 -70 -15 -100 -6 -30
-11 -67 -12 -83 -2 -23 -9 -29 -43 -38 -300 -75 -590 -263 -788 -511 -21 -27
-35 -48 -30 -49 11 -1 2344 -1 2361 0 21 1 -73 114 -171 207 -95 89 -239 190
-352 246 -66 33 -219 90 -275 102 -52 12 -50 8 -70 180 -7 54 -13 107 -15 116
-2 10 -6 47 -10 82 -3 34 -8 77 -10 93 -2 17 -6 53 -10 80 -3 28 -7 61 -9 75
-4 23 -11 82 -21 185 -2 22 -7 63 -10 90 -4 28 -8 75 -10 105 -2 30 -7 87 -11
125 -10 94 -10 365 -1 441 9 75 29 155 55 215 21 48 28 52 108 65 68 10 265
80 366 128 285 137 543 369 699 629 24 41 47 61 106 97 92 55 234 155 333 235
104 83 352 333 433 435 61 76 207 284 207 294 0 2 18 35 40 72 45 77 118 245
149 344 36 113 53 211 56 330 7 219 -48 374 -180 505 -141 142 -304 195 -578
190 l-148 -2 5 46 c4 25 8 62 11 81 2 19 7 58 10 85 3 28 8 71 11 98 6 44 5
47 -18 48 -12 0 -34 2 -48 4 -31 3 -162 16 -215 21 -22 1 -62 5 -90 8 -27 3
-79 8 -115 11 -137 10 -227 16 -275 20 -56 5 -228 14 -380 21 -147 6 -845 21
-848 18z m247 -728 c137 -279 184 -366 200 -370 12 -2 44 -7 71 -11 28 -3 93
-13 145 -20 52 -8 118 -17 145 -21 28 -3 59 -8 70 -10 11 -2 85 -13 165 -24
232 -32 222 -14 82 -149 -346 -333 -473 -463 -468 -479 3 -9 8 -35 11 -57 3
-22 10 -62 15 -90 16 -83 39 -218 45 -255 3 -19 10 -60 15 -90 5 -30 12 -71
15 -90 12 -73 26 -156 31 -184 l6 -28 -118 62 c-66 35 -159 84 -209 110 -49
26 -128 68 -175 92 -47 25 -118 62 -158 83 l-74 38 -41 -22 c-23 -13 -98 -52
-167 -88 -69 -36 -156 -82 -195 -103 -235 -125 -325 -170 -325 -163 0 4 6 42
14 83 8 41 17 97 21 124 3 27 8 52 9 55 2 3 7 26 10 51 6 42 8 58 21 128 3 15
10 54 15 87 5 33 12 72 15 88 3 15 10 55 15 90 6 34 13 70 16 79 5 17 -61 84
-444 455 -81 79 -142 143 -137 144 11 1 30 4 90 13 22 4 58 9 80 12 22 4 49 8
60 10 11 1 58 8 105 14 47 6 96 13 110 15 14 2 88 13 165 25 77 11 154 22 170
25 29 5 39 22 210 370 99 201 182 365 185 365 3 0 86 -164 184 -364z m-2103
-39 c62 -11 140 -31 143 -36 2 -3 7 -31 11 -61 3 -30 8 -66 10 -80 2 -14 7
-54 10 -90 3 -36 7 -74 9 -85 2 -11 7 -56 11 -100 4 -44 8 -82 10 -85 2 -3 6
-45 10 -95 4 -49 8 -92 10 -95 1 -3 6 -41 9 -85 4 -44 9 -87 11 -95 2 -8 7
-46 10 -85 4 -38 8 -83 10 -100 2 -16 7 -55 10 -85 3 -30 8 -71 10 -90 3 -19
7 -57 10 -85 9 -95 26 -250 31 -290 11 -72 11 -85 5 -85 -12 0 -142 103 -233
184 -409 364 -682 849 -673 1194 2 109 6 126 36 188 38 81 107 125 259 167 18
6 245 0 281 -6z m4184 -10 c113 -36 187 -109 219 -215 30 -102 9 -299 -49
-462 -63 -178 -225 -442 -380 -620 -54 -62 -238 -244 -300 -296 -76 -64 -85
-69 -81 -47 2 10 7 52 11 93 3 41 8 82 10 90 2 8 7 48 10 89 4 41 8 88 11 105
2 17 6 54 9 81 10 92 16 150 20 180 2 17 9 75 15 130 6 55 13 116 15 135 2 19
7 67 11 105 3 39 8 77 9 85 2 8 6 49 10 90 4 41 8 82 10 90 3 19 15 122 20
175 10 114 18 180 21 184 3 3 30 10 62 17 78 16 284 11 347 -9z"/>
</g>
</svg>
